<svg width="467" height="467"  fill="none" xmlns="http://www.w3.org/2000/svg">
<rect width="467" height="467" fill="#E5E5E5"/>
<rect width="1304" height="926"  fill="#2149D6"/>
<g clip-path="url(#clip0_0:1)">
<path d="M467 233.5C467.081 288.618 447.584 341.974 411.986 384.055C410.693 385.59 409.376 387.101 408.035 388.604C392.252 406.355 373.866 421.607 353.506 433.841C348.836 436.645 344.064 439.287 339.189 441.768C338.696 442.018 338.195 442.268 337.702 442.511C337.113 442.81 336.515 443.101 335.917 443.392C323.581 449.429 310.732 454.356 297.523 458.113C296.149 458.5 294.773 458.877 293.394 459.244C276.017 463.841 258.166 466.414 240.198 466.911C239.261 466.935 238.34 466.952 237.451 466.968C237.136 466.976 236.829 466.984 236.522 466.984C235.512 466.992 234.51 467 233.5 467C214.565 467.014 195.698 464.727 177.315 460.189C175.472 459.737 173.638 459.26 171.812 458.759C162.194 456.133 152.756 452.886 143.558 449.039C138.71 447.019 133.949 444.84 129.273 442.503C128.215 441.97 127.156 441.436 126.114 440.887C125.67 440.669 125.234 440.434 124.797 440.208C99.8784 427.056 77.5319 409.523 58.8274 388.45C57.5347 387.004 56.2662 385.534 55.0139 384.055C34.405 359.62 19.0322 331.215 9.84744 300.597C0.662697 269.98 -2.13837 237.803 1.61772 206.059C5.37382 174.315 15.6071 143.68 31.6838 116.052C47.7604 88.4234 69.3381 64.3899 95.0805 45.4396C96.4056 44.462 97.7387 43.4924 99.088 42.5471C99.3546 42.3613 99.6212 42.1754 99.8879 41.9896C123.596 25.3828 150.206 13.3658 178.341 6.56063C179.94 6.16473 181.54 5.79307 183.156 5.44565C213.63 -1.22025 245.124 -1.77226 275.813 3.82165C277.421 4.12059 279.028 4.42762 280.628 4.75888C308.511 10.478 335.105 21.277 359.081 36.6167C359.614 36.956 360.147 37.2954 360.681 37.6509C361.755 38.3457 362.83 39.0567 363.888 39.7758C395.65 61.1288 421.669 89.9692 439.651 123.754C457.633 157.538 467.025 195.228 467 233.5V233.5Z" fill="#F2F2F2"/>
<path d="M174.519 354.298L99.8879 360.923L99.088 360.996V42.5471C99.3546 42.3612 99.6213 42.1754 99.8879 41.9896C115.442 31.1102 132.267 22.1725 149.989 15.3754L153.803 67.9735L154.15 72.789L157.924 124.951L159.087 140.997L174.382 352.44L174.519 354.298Z" fill="#CCCCCC"/>
<path d="M359.081 36.6167C359.614 36.956 360.147 37.2954 360.681 37.6509V360.996L359.081 360.85L285.258 354.298L285.395 352.44L300.69 140.997L301.853 124.951L305.626 72.789L305.974 67.9736L309.973 12.8142C327.22 18.7926 343.703 26.7818 359.081 36.6167V36.6167Z" fill="#CCCCCC"/>
<path d="M359.081 36.6167V365.407C359.081 371.717 354.734 376.848 349.385 376.848H109.583C105.156 376.848 101.399 373.325 100.26 368.518C100.011 367.5 99.8861 366.455 99.8879 365.407V41.9896C99.6213 42.1755 99.3547 42.3613 99.088 42.5471C97.7388 43.4924 96.4056 44.4619 95.0806 45.4396V365.407C95.009 370.2 96.7989 374.834 100.074 378.335C101.791 380.134 103.963 381.435 106.36 382.1C107.41 382.386 108.495 382.53 109.583 382.528H349.385C350.477 382.529 351.564 382.385 352.617 382.1C359.065 380.363 363.888 373.543 363.888 365.407V39.7758C362.83 39.0567 361.755 38.3457 360.681 37.6509C360.147 37.2954 359.614 36.956 359.081 36.6167Z" fill="#CCCCCC"/>
<path d="M361.487 67.9768H97.4844V72.7914H361.487V67.9768Z" fill="#CCCCCC"/>
<path d="M178.341 6.56062C179.94 6.16472 181.54 5.79307 183.156 5.44565V136.181H178.341V6.56062Z" fill="#CCCCCC"/>
<path d="M275.813 3.82164C277.421 4.12058 279.028 4.42761 280.628 4.75887V136.181H275.813V3.82164Z" fill="#CCCCCC"/>
<path d="M391.577 352.44H75.4148C69.6677 352.44 64.156 354.723 60.0922 358.786C56.0284 362.85 53.7454 368.362 53.7454 374.109C53.7454 379.856 56.0284 385.368 60.0922 389.432C64.156 393.495 69.6677 395.778 75.4148 395.778H391.577C394.654 395.779 397.697 395.123 400.5 393.854C403.303 392.584 405.803 390.731 407.833 388.418C408.752 387.372 409.569 386.241 410.273 385.041C410.818 384.12 411.291 383.158 411.687 382.164C413.007 378.877 413.5 375.316 413.124 371.793C412.747 368.271 411.512 364.895 409.527 361.961C407.542 359.026 404.868 356.624 401.738 354.964C398.609 353.304 395.12 352.437 391.577 352.44V352.44Z" fill="#CCCCCC"/>
<path d="M361.487 124.95H99.0892V140.999H361.487V124.95Z" fill="#CCCCCC"/>
<path d="M227.881 120.135H232.695C233.854 120.135 235.002 120.364 236.073 120.807C237.144 121.251 238.117 121.901 238.937 122.721C239.756 123.54 240.407 124.513 240.85 125.584C241.294 126.655 241.522 127.803 241.522 128.962V128.962H219.054C219.054 126.621 219.984 124.376 221.639 122.721C223.294 121.065 225.54 120.135 227.881 120.135H227.881Z" fill="#CCCCCC"/>
<path d="M411.986 384.055C404.967 392.372 397.375 400.188 389.266 407.445H77.7337C69.6246 400.188 62.0328 392.372 55.0139 384.055H411.986Z" fill="#3F3D56"/>
<path d="M259.581 303.041H207.128C206.846 303.038 206.564 303.082 206.296 303.17C205.727 303.346 205.229 303.7 204.875 304.18C204.522 304.66 204.332 305.241 204.333 305.837V388.701H262.385V305.837C262.384 305.469 262.311 305.105 262.17 304.765C262.029 304.426 261.822 304.117 261.562 303.858C261.302 303.598 260.993 303.392 260.653 303.252C260.313 303.112 259.949 303.04 259.581 303.041ZM239.729 343.924C239.731 345.268 239.288 346.575 238.469 347.64C237.687 348.675 236.601 349.437 235.363 349.821C234.124 350.205 232.797 350.191 231.567 349.781C230.338 349.37 229.268 348.584 228.509 347.533C227.749 346.483 227.339 345.22 227.335 343.924V334.309C227.35 332.675 228.01 331.114 229.171 329.964C230.331 328.814 231.899 328.169 233.532 328.169C235.166 328.169 236.734 328.814 237.894 329.964C239.055 331.114 239.714 332.675 239.729 334.309V343.924Z" fill="#2F2E41"/>
<path d="M204.155 386.051V394.041C204.155 394.456 204.319 394.853 204.611 395.147C204.903 395.441 205.3 395.607 205.714 395.609H261.003C261.417 395.605 261.813 395.439 262.105 395.145C262.396 394.852 262.561 394.455 262.562 394.041V386.051H204.155Z" fill="#3F3D56"/>
<path d="M346.436 173.727H122.228C120.302 173.73 118.455 174.495 117.092 175.857C115.729 177.218 114.961 179.064 114.956 180.991V332.289C114.958 334.217 115.724 336.066 117.088 337.429C118.451 338.793 120.3 339.559 122.228 339.561H346.436C348.364 339.559 350.213 338.793 351.576 337.429C352.94 336.066 353.706 334.217 353.708 332.289V180.991C353.703 179.064 352.936 177.218 351.573 175.857C350.21 174.495 348.363 173.73 346.436 173.727V173.727Z" fill="#3F3D56"/>
<path d="M344.562 178.979H124.094C123.063 178.981 122.075 179.392 121.346 180.123C120.617 180.853 120.208 181.842 120.208 182.873V330.423C120.21 331.453 120.62 332.44 121.348 333.169C122.077 333.897 123.064 334.307 124.094 334.309H344.562C345.592 334.307 346.58 333.897 347.308 333.169C348.036 332.44 348.446 331.453 348.448 330.423V182.873C348.448 181.842 348.039 180.853 347.31 180.123C346.582 179.392 345.593 178.981 344.562 178.979V178.979Z" fill="#00B0FF"/>
<path d="M303.986 395.48L301.95 385.808C301.866 385.414 301.684 385.047 301.422 384.741C301.159 384.434 300.824 384.199 300.447 384.055C300.175 383.948 299.884 383.893 299.591 383.893H172.491C172.198 383.893 171.907 383.948 171.635 384.055C171.258 384.199 170.923 384.434 170.66 384.741C170.398 385.047 170.216 385.414 170.132 385.808L168.096 395.48C168.022 395.831 168.028 396.194 168.112 396.542C168.197 396.891 168.358 397.216 168.584 397.495C168.809 397.774 169.095 397.998 169.418 398.153C169.742 398.307 170.096 398.388 170.455 398.388H301.619C301.979 398.39 302.334 398.31 302.659 398.155C302.984 398 303.269 397.773 303.493 397.491C303.72 397.214 303.882 396.889 303.967 396.541C304.052 396.193 304.059 395.83 303.986 395.48V395.48Z" fill="#2F2E41"/>
<path d="M177.068 385.635H173.817C173.599 385.635 173.423 385.812 173.423 386.03V387.665C173.423 387.882 173.599 388.059 173.817 388.059H177.068C177.286 388.059 177.462 387.882 177.462 387.665V386.03C177.462 385.812 177.286 385.635 177.068 385.635Z" fill="#3F3D56"/>
<path d="M185.148 385.635H181.897C181.679 385.635 181.502 385.812 181.502 386.03V387.665C181.502 387.882 181.679 388.059 181.897 388.059H185.148C185.365 388.059 185.542 387.882 185.542 387.665V386.03C185.542 385.812 185.365 385.635 185.148 385.635Z" fill="#3F3D56"/>
<path d="M193.227 385.635H189.976C189.758 385.635 189.582 385.812 189.582 386.03V387.665C189.582 387.882 189.758 388.059 189.976 388.059H193.227C193.445 388.059 193.622 387.882 193.622 387.665V386.03C193.622 385.812 193.445 385.635 193.227 385.635Z" fill="#3F3D56"/>
<path d="M201.307 385.635H198.056C197.838 385.635 197.661 385.812 197.661 386.03V387.665C197.661 387.882 197.838 388.059 198.056 388.059H201.307C201.525 388.059 201.701 387.882 201.701 387.665V386.03C201.701 385.812 201.525 385.635 201.307 385.635Z" fill="#3F3D56"/>
<path d="M209.386 385.635H206.135C205.918 385.635 205.741 385.812 205.741 386.03V387.665C205.741 387.882 205.918 388.059 206.135 388.059H209.386C209.604 388.059 209.781 387.882 209.781 387.665V386.03C209.781 385.812 209.604 385.635 209.386 385.635Z" fill="#3F3D56"/>
<path d="M217.466 385.635H214.215C213.997 385.635 213.821 385.812 213.821 386.03V387.665C213.821 387.882 213.997 388.059 214.215 388.059H217.466C217.684 388.059 217.86 387.882 217.86 387.665V386.03C217.86 385.812 217.684 385.635 217.466 385.635Z" fill="#3F3D56"/>
<path d="M225.546 385.635H222.295C222.077 385.635 221.9 385.812 221.9 386.03V387.665C221.9 387.882 222.077 388.059 222.295 388.059H225.546C225.763 388.059 225.94 387.882 225.94 387.665V386.03C225.94 385.812 225.763 385.635 225.546 385.635Z" fill="#3F3D56"/>
<path d="M233.625 385.635H230.374C230.156 385.635 229.98 385.812 229.98 386.03V387.665C229.98 387.882 230.156 388.059 230.374 388.059H233.625C233.843 388.059 234.02 387.882 234.02 387.665V386.03C234.02 385.812 233.843 385.635 233.625 385.635Z" fill="#3F3D56"/>
<path d="M241.705 385.635H238.454C238.236 385.635 238.059 385.812 238.059 386.03V387.665C238.059 387.882 238.236 388.059 238.454 388.059H241.705C241.922 388.059 242.099 387.882 242.099 387.665V386.03C242.099 385.812 241.922 385.635 241.705 385.635Z" fill="#3F3D56"/>
<path d="M249.784 385.635H246.533C246.316 385.635 246.139 385.812 246.139 386.03V387.665C246.139 387.882 246.316 388.059 246.533 388.059H249.784C250.002 388.059 250.179 387.882 250.179 387.665V386.03C250.179 385.812 250.002 385.635 249.784 385.635Z" fill="#3F3D56"/>
<path d="M257.864 385.635H254.613C254.395 385.635 254.219 385.812 254.219 386.03V387.665C254.219 387.882 254.395 388.059 254.613 388.059H257.864C258.082 388.059 258.258 387.882 258.258 387.665V386.03C258.258 385.812 258.082 385.635 257.864 385.635Z" fill="#3F3D56"/>
<path d="M265.943 385.635H262.693C262.475 385.635 262.298 385.812 262.298 386.03V387.665C262.298 387.882 262.475 388.059 262.693 388.059H265.943C266.161 388.059 266.338 387.882 266.338 387.665V386.03C266.338 385.812 266.161 385.635 265.943 385.635Z" fill="#3F3D56"/>
<path d="M274.023 385.635H270.772C270.554 385.635 270.378 385.812 270.378 386.03V387.665C270.378 387.882 270.554 388.059 270.772 388.059H274.023C274.241 388.059 274.417 387.882 274.417 387.665V386.03C274.417 385.812 274.241 385.635 274.023 385.635Z" fill="#3F3D56"/>
<path d="M282.103 385.635H278.852C278.634 385.635 278.457 385.812 278.457 386.03V387.665C278.457 387.882 278.634 388.059 278.852 388.059H282.103C282.32 388.059 282.497 387.882 282.497 387.665V386.03C282.497 385.812 282.32 385.635 282.103 385.635Z" fill="#3F3D56"/>
<path d="M290.182 385.635H286.931C286.713 385.635 286.537 385.812 286.537 386.03V387.665C286.537 387.882 286.713 388.059 286.931 388.059H290.182C290.4 388.059 290.577 387.882 290.577 387.665V386.03C290.577 385.812 290.4 385.635 290.182 385.635Z" fill="#3F3D56"/>
<path d="M298.262 385.635H295.011C294.793 385.635 294.616 385.812 294.616 386.03V387.665C294.616 387.882 294.793 388.059 295.011 388.059H298.262C298.48 388.059 298.656 387.882 298.656 387.665V386.03C298.656 385.812 298.48 385.635 298.262 385.635Z" fill="#3F3D56"/>
<path d="M176.973 389.675H173.722C173.504 389.675 173.327 389.852 173.327 390.069V391.704C173.327 391.922 173.504 392.099 173.722 392.099H176.973C177.19 392.099 177.367 391.922 177.367 391.704V390.069C177.367 389.852 177.19 389.675 176.973 389.675Z" fill="#3F3D56"/>
<path d="M185.052 389.675H181.801C181.583 389.675 181.407 389.852 181.407 390.069V391.704C181.407 391.922 181.583 392.099 181.801 392.099H185.052C185.27 392.099 185.447 391.922 185.447 391.704V390.069C185.447 389.852 185.27 389.675 185.052 389.675Z" fill="#3F3D56"/>
<path d="M193.132 389.675H189.881C189.663 389.675 189.486 389.852 189.486 390.069V391.704C189.486 391.922 189.663 392.099 189.881 392.099H193.132C193.35 392.099 193.526 391.922 193.526 391.704V390.069C193.526 389.852 193.35 389.675 193.132 389.675Z" fill="#3F3D56"/>
<path d="M201.211 389.675H197.96C197.743 389.675 197.566 389.852 197.566 390.069V391.704C197.566 391.922 197.743 392.099 197.96 392.099H201.211C201.429 392.099 201.606 391.922 201.606 391.704V390.069C201.606 389.852 201.429 389.675 201.211 389.675Z" fill="#3F3D56"/>
<path d="M209.291 389.675H206.04C205.822 389.675 205.646 389.852 205.646 390.069V391.704C205.646 391.922 205.822 392.099 206.04 392.099H209.291C209.509 392.099 209.685 391.922 209.685 391.704V390.069C209.685 389.852 209.509 389.675 209.291 389.675Z" fill="#3F3D56"/>
<path d="M217.37 389.675H214.12C213.902 389.675 213.725 389.852 213.725 390.069V391.704C213.725 391.922 213.902 392.099 214.12 392.099H217.37C217.588 392.099 217.765 391.922 217.765 391.704V390.069C217.765 389.852 217.588 389.675 217.37 389.675Z" fill="#3F3D56"/>
<path d="M225.45 389.675H222.199C221.981 389.675 221.805 389.852 221.805 390.069V391.704C221.805 391.922 221.981 392.099 222.199 392.099H225.45C225.668 392.099 225.844 391.922 225.844 391.704V390.069C225.844 389.852 225.668 389.675 225.45 389.675Z" fill="#3F3D56"/>
<path d="M233.53 389.675H230.279C230.061 389.675 229.884 389.852 229.884 390.069V391.704C229.884 391.922 230.061 392.099 230.279 392.099H233.53C233.747 392.099 233.924 391.922 233.924 391.704V390.069C233.924 389.852 233.747 389.675 233.53 389.675Z" fill="#3F3D56"/>
<path d="M241.609 389.675H238.358C238.14 389.675 237.964 389.852 237.964 390.069V391.704C237.964 391.922 238.14 392.099 238.358 392.099H241.609C241.827 392.099 242.004 391.922 242.004 391.704V390.069C242.004 389.852 241.827 389.675 241.609 389.675Z" fill="#3F3D56"/>
<path d="M249.689 389.675H246.438C246.22 389.675 246.043 389.852 246.043 390.069V391.704C246.043 391.922 246.22 392.099 246.438 392.099H249.689C249.907 392.099 250.083 391.922 250.083 391.704V390.069C250.083 389.852 249.907 389.675 249.689 389.675Z" fill="#3F3D56"/>
<path d="M257.768 389.675H254.517C254.3 389.675 254.123 389.852 254.123 390.069V391.704C254.123 391.922 254.3 392.099 254.517 392.099H257.768C257.986 392.099 258.163 391.922 258.163 391.704V390.069C258.163 389.852 257.986 389.675 257.768 389.675Z" fill="#3F3D56"/>
<path d="M265.848 389.675H262.597C262.379 389.675 262.203 389.852 262.203 390.069V391.704C262.203 391.922 262.379 392.099 262.597 392.099H265.848C266.066 392.099 266.242 391.922 266.242 391.704V390.069C266.242 389.852 266.066 389.675 265.848 389.675Z" fill="#3F3D56"/>
<path d="M273.928 389.675H270.677C270.459 389.675 270.282 389.852 270.282 390.069V391.704C270.282 391.922 270.459 392.099 270.677 392.099H273.928C274.145 392.099 274.322 391.922 274.322 391.704V390.069C274.322 389.852 274.145 389.675 273.928 389.675Z" fill="#3F3D56"/>
<path d="M282.007 389.675H278.756C278.538 389.675 278.362 389.852 278.362 390.069V391.704C278.362 391.922 278.538 392.099 278.756 392.099H282.007C282.225 392.099 282.402 391.922 282.402 391.704V390.069C282.402 389.852 282.225 389.675 282.007 389.675Z" fill="#3F3D56"/>
<path d="M290.087 389.675H286.836C286.618 389.675 286.441 389.852 286.441 390.069V391.704C286.441 391.922 286.618 392.099 286.836 392.099H290.087C290.305 392.099 290.481 391.922 290.481 391.704V390.069C290.481 389.852 290.305 389.675 290.087 389.675Z" fill="#3F3D56"/>
<path d="M298.166 389.675H294.915C294.698 389.675 294.521 389.852 294.521 390.069V391.704C294.521 391.922 294.698 392.099 294.915 392.099H298.166C298.384 392.099 298.561 391.922 298.561 391.704V390.069C298.561 389.852 298.384 389.675 298.166 389.675Z" fill="#3F3D56"/>
<path d="M244.033 394.523H212.504C212.286 394.523 212.109 394.699 212.109 394.917V396.552C212.109 396.77 212.286 396.947 212.504 396.947H244.033C244.251 396.947 244.428 396.77 244.428 396.552V394.917C244.428 394.699 244.251 394.523 244.033 394.523Z" fill="#3F3D56"/>
<path d="M333.483 199.305H127.193C126.978 199.3 126.774 199.211 126.624 199.058C126.474 198.905 126.39 198.699 126.39 198.484C126.39 198.27 126.474 198.064 126.624 197.91C126.774 197.757 126.978 197.668 127.193 197.664H333.483C333.698 197.668 333.902 197.757 334.052 197.91C334.202 198.064 334.286 198.27 334.286 198.484C334.286 198.699 334.202 198.905 334.052 199.058C333.902 199.211 333.698 199.3 333.483 199.305V199.305Z" fill="#3F3D56"/>
<path d="M141.235 193.475C143.89 193.475 146.043 191.275 146.043 188.56C146.043 185.846 143.89 183.646 141.235 183.646C138.58 183.646 136.427 185.846 136.427 188.56C136.427 191.275 138.58 193.475 141.235 193.475Z" fill="#3F3D56"/>
<path d="M157.844 193.475C160.499 193.475 162.651 191.275 162.651 188.56C162.651 185.846 160.499 183.646 157.844 183.646C155.188 183.646 153.036 185.846 153.036 188.56C153.036 191.275 155.188 193.475 157.844 193.475Z" fill="#3F3D56"/>
<path d="M174.452 193.475C177.107 193.475 179.26 191.275 179.26 188.56C179.26 185.846 177.107 183.646 174.452 183.646C171.797 183.646 169.644 185.846 169.644 188.56C169.644 191.275 171.797 193.475 174.452 193.475Z" fill="#3F3D56"/>
<path d="M323.482 184.861H311.686C311.453 184.866 311.231 184.963 311.068 185.13C310.905 185.296 310.814 185.52 310.814 185.754C310.814 185.987 310.905 186.211 311.068 186.378C311.231 186.545 311.453 186.641 311.686 186.646H323.482C323.717 186.643 323.941 186.548 324.106 186.381C324.27 186.214 324.363 185.988 324.363 185.754C324.363 185.519 324.27 185.294 324.106 185.127C323.941 184.96 323.717 184.864 323.482 184.861Z" fill="#3F3D56"/>
<path d="M323.482 188.214H311.686C311.453 188.219 311.231 188.315 311.067 188.482C310.904 188.649 310.813 188.873 310.813 189.107C310.813 189.34 310.904 189.564 311.067 189.731C311.231 189.898 311.453 189.994 311.686 190H323.482C323.717 189.997 323.942 189.901 324.107 189.734C324.272 189.567 324.364 189.342 324.364 189.107C324.364 188.872 324.272 188.646 324.107 188.479C323.942 188.312 323.717 188.217 323.482 188.214V188.214Z" fill="#3F3D56"/>
<path d="M323.482 191.567H311.686C311.453 191.572 311.231 191.669 311.068 191.836C310.905 192.003 310.814 192.226 310.814 192.46C310.814 192.693 310.905 192.917 311.068 193.084C311.231 193.251 311.453 193.347 311.686 193.353H323.482C323.717 193.349 323.941 193.254 324.106 193.087C324.27 192.92 324.363 192.694 324.363 192.46C324.363 192.225 324.27 192 324.106 191.833C323.941 191.666 323.717 191.57 323.482 191.567V191.567Z" fill="#3F3D56"/>
<path d="M144.98 218.37H140.742C139.456 218.37 138.415 219.411 138.415 220.696C138.415 221.982 139.456 223.023 140.742 223.023H144.98C146.265 223.023 147.307 221.982 147.307 220.696C147.307 219.411 146.265 218.37 144.98 218.37Z" fill="#E6E6E6"/>
<path d="M193.458 218.37H189.219C187.934 218.37 186.892 219.411 186.892 220.696C186.892 221.982 187.934 223.023 189.219 223.023H193.458C194.743 223.023 195.785 221.982 195.785 220.696C195.785 219.411 194.743 218.37 193.458 218.37Z" fill="#E6E6E6"/>
<path d="M207.193 218.37H202.954C201.669 218.37 200.628 219.411 200.628 220.696C200.628 221.982 201.669 223.023 202.954 223.023H207.193C208.478 223.023 209.52 221.982 209.52 220.696C209.52 219.411 208.478 218.37 207.193 218.37Z" fill="#E6E6E6"/>
<path d="M180.272 217.982H153.928C152.643 217.982 151.601 219.023 151.601 220.309C151.601 221.594 152.643 222.635 153.928 222.635H180.272C181.557 222.635 182.599 221.594 182.599 220.309C182.599 219.023 181.557 217.982 180.272 217.982Z" fill="#E6E6E6"/>
<path d="M244.908 217.982H218.564C217.279 217.982 216.237 219.023 216.237 220.309C216.237 221.594 217.279 222.635 218.564 222.635H244.908C246.193 222.635 247.235 221.594 247.235 220.309C247.235 219.023 246.193 217.982 244.908 217.982Z" fill="#E6E6E6"/>
<path d="M157.908 228.873H153.669C152.384 228.873 151.342 229.915 151.342 231.2C151.342 232.485 152.384 233.527 153.669 233.527H157.908C159.193 233.527 160.234 232.485 160.234 231.2C160.234 229.915 159.193 228.873 157.908 228.873Z" fill="#E6E6E6"/>
<path d="M206.385 228.873H202.146C200.861 228.873 199.82 229.915 199.82 231.2C199.82 232.485 200.861 233.527 202.146 233.527H206.385C207.67 233.527 208.712 232.485 208.712 231.2C208.712 229.915 207.67 228.873 206.385 228.873Z" fill="#E6E6E6"/>
<path d="M220.12 228.873H215.882C214.597 228.873 213.555 229.915 213.555 231.2C213.555 232.485 214.597 233.527 215.882 233.527H220.12C221.405 233.527 222.447 232.485 222.447 231.2C222.447 229.915 221.405 228.873 220.12 228.873Z" fill="#E6E6E6"/>
<path d="M193.199 228.485H166.855C165.57 228.485 164.528 229.527 164.528 230.812C164.528 232.097 165.57 233.139 166.855 233.139H193.199C194.484 233.139 195.526 232.097 195.526 230.812C195.526 229.527 194.484 228.485 193.199 228.485Z" fill="#E6E6E6"/>
<path d="M257.836 228.485H231.492C230.207 228.485 229.165 229.527 229.165 230.812C229.165 232.097 230.207 233.139 231.492 233.139H257.836C259.121 233.139 260.163 232.097 260.163 230.812C260.163 229.527 259.121 228.485 257.836 228.485Z" fill="#E6E6E6"/>
<path d="M170.835 239.377H166.596C165.311 239.377 164.269 240.418 164.269 241.703C164.269 242.988 165.311 244.03 166.596 244.03H170.835C172.12 244.03 173.162 242.988 173.162 241.703C173.162 240.418 172.12 239.377 170.835 239.377Z" fill="#E6E6E6"/>
<path d="M219.312 239.377H215.074C213.789 239.377 212.747 240.418 212.747 241.703C212.747 242.988 213.789 244.03 215.074 244.03H219.312C220.598 244.03 221.639 242.988 221.639 241.703C221.639 240.418 220.598 239.377 219.312 239.377Z" fill="#E6E6E6"/>
<path d="M233.048 239.377H228.809C227.524 239.377 226.482 240.418 226.482 241.703C226.482 242.988 227.524 244.03 228.809 244.03H233.048C234.333 244.03 235.375 242.988 235.375 241.703C235.375 240.418 234.333 239.377 233.048 239.377Z" fill="#E6E6E6"/>
<path d="M206.126 238.989H179.782C178.497 238.989 177.455 240.03 177.455 241.315C177.455 242.601 178.497 243.642 179.782 243.642H206.126C207.412 243.642 208.453 242.601 208.453 241.315C208.453 240.03 207.412 238.989 206.126 238.989Z" fill="#E6E6E6"/>
<path d="M270.763 238.989H244.419C243.134 238.989 242.092 240.03 242.092 241.315C242.092 242.601 243.134 243.642 244.419 243.642H270.763C272.048 243.642 273.09 242.601 273.09 241.315C273.09 240.03 272.048 238.989 270.763 238.989Z" fill="#E6E6E6"/>
<path d="M183.762 249.88H179.524C178.238 249.88 177.197 250.922 177.197 252.207C177.197 253.492 178.238 254.534 179.524 254.534H183.762C185.047 254.534 186.089 253.492 186.089 252.207C186.089 250.922 185.047 249.88 183.762 249.88Z" fill="#E6E6E6"/>
<path d="M232.24 249.88H228.001C226.716 249.88 225.674 250.922 225.674 252.207C225.674 253.492 226.716 254.534 228.001 254.534H232.24C233.525 254.534 234.567 253.492 234.567 252.207C234.567 250.922 233.525 249.88 232.24 249.88Z" fill="#E6E6E6"/>
<path d="M245.975 249.88H241.736C240.451 249.88 239.409 250.922 239.409 252.207C239.409 253.492 240.451 254.534 241.736 254.534H245.975C247.26 254.534 248.302 253.492 248.302 252.207C248.302 250.922 247.26 249.88 245.975 249.88Z" fill="#E6E6E6"/>
<path d="M219.054 249.492H192.71C191.424 249.492 190.383 250.534 190.383 251.819C190.383 253.104 191.424 254.146 192.71 254.146H219.054C220.339 254.146 221.381 253.104 221.381 251.819C221.381 250.534 220.339 249.492 219.054 249.492Z" fill="#E6E6E6"/>
<path d="M193.458 291.646H189.219C187.934 291.646 186.892 292.688 186.892 293.973C186.892 295.258 187.934 296.3 189.219 296.3H193.458C194.743 296.3 195.785 295.258 195.785 293.973C195.785 292.688 194.743 291.646 193.458 291.646Z" fill="#E6E6E6"/>
<path d="M207.193 291.646H202.954C201.669 291.646 200.628 292.688 200.628 293.973C200.628 295.258 201.669 296.3 202.954 296.3H207.193C208.478 296.3 209.52 295.258 209.52 293.973C209.52 292.688 208.478 291.646 207.193 291.646Z" fill="#E6E6E6"/>
<path d="M244.908 292.034H218.564C217.279 292.034 216.237 293.076 216.237 294.361C216.237 295.646 217.279 296.688 218.564 296.688H244.908C246.193 296.688 247.235 295.646 247.235 294.361C247.235 293.076 246.193 292.034 244.908 292.034Z" fill="#E6E6E6"/>
<path d="M144.98 291.646H140.742C139.456 291.646 138.415 292.688 138.415 293.973C138.415 295.258 139.456 296.3 140.742 296.3H144.98C146.265 296.3 147.307 295.258 147.307 293.973C147.307 292.688 146.265 291.646 144.98 291.646Z" fill="#E6E6E6"/>
<path d="M180.272 292.034H153.928C152.643 292.034 151.601 293.076 151.601 294.361C151.601 295.646 152.643 296.688 153.928 296.688H180.272C181.557 296.688 182.599 295.646 182.599 294.361C182.599 293.076 181.557 292.034 180.272 292.034Z" fill="#E6E6E6"/>
<path d="M157.908 281.143H153.669C152.384 281.143 151.342 282.185 151.342 283.47C151.342 284.755 152.384 285.797 153.669 285.797H157.908C159.193 285.797 160.234 284.755 160.234 283.47C160.234 282.185 159.193 281.143 157.908 281.143Z" fill="#E6E6E6"/>
<path d="M206.385 281.143H202.146C200.861 281.143 199.82 282.185 199.82 283.47C199.82 284.755 200.861 285.797 202.146 285.797H206.385C207.67 285.797 208.712 284.755 208.712 283.47C208.712 282.185 207.67 281.143 206.385 281.143Z" fill="#E6E6E6"/>
<path d="M220.12 281.143H215.882C214.597 281.143 213.555 282.185 213.555 283.47C213.555 284.755 214.597 285.797 215.882 285.797H220.12C221.405 285.797 222.447 284.755 222.447 283.47C222.447 282.185 221.405 281.143 220.12 281.143Z" fill="#E6E6E6"/>
<path d="M193.199 281.531H166.855C165.57 281.531 164.528 282.572 164.528 283.858C164.528 285.143 165.57 286.184 166.855 286.184H193.199C194.484 286.184 195.526 285.143 195.526 283.858C195.526 282.572 194.484 281.531 193.199 281.531Z" fill="#E6E6E6"/>
<path d="M170.835 270.639H166.596C165.311 270.639 164.269 271.681 164.269 272.966C164.269 274.251 165.311 275.293 166.596 275.293H170.835C172.12 275.293 173.162 274.251 173.162 272.966C173.162 271.681 172.12 270.639 170.835 270.639Z" fill="#E6E6E6"/>
<path d="M219.312 270.639H215.074C213.789 270.639 212.747 271.681 212.747 272.966C212.747 274.251 213.789 275.293 215.074 275.293H219.312C220.598 275.293 221.639 274.251 221.639 272.966C221.639 271.681 220.598 270.639 219.312 270.639Z" fill="#E6E6E6"/>
<path d="M233.048 270.639H228.809C227.524 270.639 226.482 271.681 226.482 272.966C226.482 274.251 227.524 275.293 228.809 275.293H233.048C234.333 275.293 235.375 274.251 235.375 272.966C235.375 271.681 234.333 270.639 233.048 270.639Z" fill="#E6E6E6"/>
<path d="M206.126 271.027H179.782C178.497 271.027 177.455 272.069 177.455 273.354C177.455 274.639 178.497 275.681 179.782 275.681H206.126C207.412 275.681 208.453 274.639 208.453 273.354C208.453 272.069 207.412 271.027 206.126 271.027Z" fill="#E6E6E6"/>
<path d="M183.762 260.136H179.524C178.238 260.136 177.197 261.178 177.197 262.463C177.197 263.748 178.238 264.79 179.524 264.79H183.762C185.047 264.79 186.089 263.748 186.089 262.463C186.089 261.178 185.047 260.136 183.762 260.136Z" fill="#E6E6E6"/>
<path d="M232.24 260.136H228.001C226.716 260.136 225.674 261.178 225.674 262.463C225.674 263.748 226.716 264.79 228.001 264.79H232.24C233.525 264.79 234.567 263.748 234.567 262.463C234.567 261.178 233.525 260.136 232.24 260.136Z" fill="#E6E6E6"/>
<path d="M245.975 260.136H241.736C240.451 260.136 239.409 261.178 239.409 262.463C239.409 263.748 240.451 264.79 241.736 264.79H245.975C247.26 264.79 248.302 263.748 248.302 262.463C248.302 261.178 247.26 260.136 245.975 260.136Z" fill="#E6E6E6"/>
<path d="M219.054 260.524H192.71C191.424 260.524 190.383 261.566 190.383 262.851C190.383 264.136 191.424 265.178 192.71 265.178H219.054C220.339 265.178 221.381 264.136 221.381 262.851C221.381 261.566 220.339 260.524 219.054 260.524Z" fill="#E6E6E6"/>
<path d="M335.957 443.383C335.464 443.634 334.963 443.884 334.471 444.127C321.705 450.51 311.492 454.137 297.523 458.112C296.343 444.943 295.204 421.795 294.097 407.445C293.806 403.721 293.515 400.594 293.232 398.388C293.161 397.215 292.922 396.059 292.521 394.954L292.57 398.388L292.691 407.445L293.394 459.244C276.017 463.841 258.166 466.414 240.198 466.911C239.261 466.935 238.34 466.952 237.451 466.968C237.136 466.976 236.829 466.984 236.522 466.984C235.512 466.992 234.51 467 233.5 467C214.565 467.014 195.698 464.727 177.315 460.189C177.711 447.157 178.106 424.267 178.486 407.445C178.567 404.157 178.64 401.095 178.72 398.388C178.874 392.603 179.036 388.434 179.189 387.036C179.053 387.284 178.947 387.547 178.874 387.82C178.126 391.304 177.615 394.835 177.347 398.388C177.064 401.095 176.781 404.157 176.499 407.445C174.996 424.922 173.428 448.684 171.812 458.759C162.194 456.133 152.756 452.886 143.558 449.039C138.71 447.019 133.949 444.84 129.273 442.503C130.162 436.685 131.091 430.165 132.045 423.403C132.788 418.159 133.556 412.77 134.339 407.445C135.551 399.22 136.795 391.157 138.056 384.055C139.898 373.681 141.789 365.343 143.663 361.513C145.441 357.877 147.218 354.29 148.939 350.856C149.537 349.652 150.135 348.464 150.717 347.309C150.854 347.034 150.991 346.768 151.129 346.501C152.365 344.069 153.561 341.742 154.7 339.561C155.677 337.694 156.607 335.933 157.487 334.309C159.62 330.366 161.43 327.223 162.771 325.236C168.379 316.73 176.726 310.398 186.428 307.291L186.671 307.226L186.84 307.299L203.363 302.225L205.779 301.482L207.403 300.981L213.123 296.626L216.234 294.258L219.151 292.037L224.855 287.698L260.171 289.871L267.046 306.426L282.446 312.058L282.713 311.937L282.947 311.84L283.189 311.904C292.89 315.014 301.237 321.346 306.847 329.849C307.606 330.988 308.527 332.491 309.569 334.309C310.458 335.852 311.428 337.614 312.478 339.561C313.973 342.332 315.605 345.459 317.334 348.844C317.714 349.587 318.101 350.347 318.489 351.115C319.208 352.536 319.938 353.988 320.679 355.469C322.4 358.903 324.177 362.491 325.955 366.134C327.498 369.294 329.057 375.79 330.592 384.055C331.861 390.923 333.121 399.018 334.341 407.445C335.941 418.369 334.236 431.45 335.683 441.501C335.771 442.139 335.868 442.761 335.957 443.383Z" fill="#3F3D56"/>
<path d="M233.997 274.483C256.681 274.483 275.071 256.094 275.071 233.41C275.071 210.725 256.681 192.336 233.997 192.336C211.313 192.336 192.923 210.725 192.923 233.41C192.923 256.094 211.313 274.483 233.997 274.483Z" fill="#A0616A"/>
<path d="M301.732 178.979C300.92 177.084 299.84 175.315 298.524 173.727C292.287 166.108 280.943 162.755 269.301 171.772C267.06 171.271 264.723 171.406 262.554 172.16C261.53 172.531 260.571 173.059 259.71 173.727C257.947 175.102 256.572 176.912 255.719 178.979C255.263 180.071 254.964 181.221 254.83 182.397C251.952 180.901 248.906 179.754 245.757 178.979C238.029 177.057 229.948 177.057 222.221 178.979C219.745 179.605 217.36 180.551 215.127 181.791C211.346 183.972 209.172 186.727 208.785 189.789C203.331 190.096 197.659 192.965 193.433 197.667C192.957 198.192 192.496 198.742 192.068 199.307C188.514 203.957 186.605 209.655 186.638 215.507V216.533H187.665C190.476 216.53 193.261 217.073 195.865 218.133C197.553 218.81 199.151 219.692 200.624 220.758C201.588 221.442 202.498 222.199 203.347 223.021C205.315 224.926 206.982 227.119 208.292 229.525C211.648 235.604 212.812 242.654 211.588 249.489C211.307 251.072 210.897 252.628 210.36 254.143C209.597 256.305 208.591 258.373 207.363 260.308C207.314 260.381 207.274 260.453 207.225 260.526C206.684 261.391 206.167 262.271 205.682 263.16C205.318 263.823 204.979 264.501 204.664 265.18C203.743 267.069 202.965 269.024 202.337 271.03C201.213 274.576 200.55 278.253 200.366 281.969C200.309 282.955 200.293 283.941 200.325 284.927C200.373 287.467 200.652 289.999 201.157 292.489C201.23 292.828 201.303 293.16 201.376 293.499L201.965 296.076L203.363 302.225L204.333 306.459L205.23 310.385L206.555 308.487C207.007 307.84 208.146 305.853 209.673 303.041C210.683 301.207 211.855 299.017 213.123 296.626C214.893 293.273 216.832 289.532 218.73 285.799C219.498 284.288 220.258 282.785 220.993 281.315C222.382 278.528 223.691 275.837 224.814 273.446C225.849 271.24 226.729 269.285 227.384 267.717C227.586 268.743 227.755 269.785 227.885 270.836C228.03 271.902 228.135 272.985 228.192 274.068C228.208 274.229 228.216 274.399 228.224 274.561L228.256 275.223L228.264 275.417L229.121 275.53C234.06 276.059 239.04 276.097 243.987 275.643H243.995C250.549 275.15 256.978 273.592 263.031 271.03C266.468 269.538 269.678 267.569 272.565 265.18C273.914 264.063 275.173 262.842 276.33 261.528C276.621 261.197 276.904 260.866 277.178 260.526C278.777 258.561 280.146 256.42 281.258 254.143C282.003 252.641 282.635 251.086 283.149 249.49C286.252 240.093 286.074 228.37 282.616 214.44C283.55 214.26 284.445 213.916 285.258 213.422C287.795 211.895 289.556 208.865 290.106 205.165L290.978 205.399C294.072 203.958 296.827 201.883 299.066 199.307C299.509 198.783 299.925 198.235 300.31 197.667C304.261 191.85 304.293 184.869 301.732 178.979Z" fill="#2F2E41"/>
<path opacity="0.2" d="M166.698 384.019L173.563 357.525L179.625 380.387L166.698 384.019Z" fill="black"/>
<path d="M349.385 366.757C346.929 400.594 349.474 415.493 335.917 443.391C323.581 449.429 310.733 454.356 297.523 458.112C296.149 458.5 294.773 458.877 293.394 459.244C276.017 463.841 258.166 466.414 240.198 466.911C239.261 466.935 238.34 466.952 237.451 466.968C237.136 466.976 236.829 466.984 236.522 466.984C235.512 466.992 234.51 467 233.5 467C214.565 467.014 195.698 464.727 177.315 460.189C175.472 459.736 173.638 459.26 171.812 458.759C162.194 456.133 152.756 452.886 143.558 449.039C138.71 447.019 133.949 444.84 129.273 442.503C128.215 441.969 127.157 441.436 126.114 440.887C120.757 431.466 117.711 420.009 117.647 406.242C121.355 382.52 341.193 346.299 349.385 366.757Z" fill="#2F2E41"/>
<path opacity="0.2" d="M349.379 372.551C349.505 370.457 349.645 368.293 349.808 366.039C341.616 345.582 121.778 381.803 118.07 405.524C118.08 407.699 118.173 409.81 118.329 411.87C127.31 388.457 336.159 354.032 349.379 372.551Z" fill="black"/>
<path d="M131.774 276.444C131.828 275.712 131.724 274.976 131.469 274.287C131.215 273.598 130.816 272.972 130.299 272.45C129.782 271.928 129.159 271.523 128.473 271.263C127.786 271.002 127.051 270.891 126.318 270.938C126.045 270.948 125.774 270.982 125.506 271.039L93.3803 278.297C92.6624 278.471 91.9889 278.793 91.4033 279.244C90.8176 279.694 90.3327 280.262 89.9798 280.911C89.5087 280.928 89.0408 280.996 88.5842 281.113C87.5844 281.34 86.6391 281.761 85.8022 282.353C84.9653 282.945 84.2532 283.696 83.7065 284.563C83.1598 285.43 82.7892 286.397 82.616 287.407C82.4428 288.417 82.4703 289.452 82.6969 290.452C82.9235 291.452 83.3448 292.397 83.9367 293.234C84.5287 294.071 85.2796 294.783 86.1468 295.33C87.8981 296.434 90.0162 296.797 92.0353 296.339C93.1845 296.072 94.2596 295.552 95.1819 294.817L106.068 325.471C106.612 326.432 107.452 327.191 108.463 327.634C109.474 328.078 110.601 328.183 111.676 327.932L132.561 323.213C133.628 322.963 134.588 322.381 135.304 321.551C136.02 320.721 136.454 319.686 136.545 318.594L131.774 276.444ZM91.5531 294.157C90.1112 294.482 88.599 294.222 87.3483 293.434C86.0976 292.646 85.2104 291.395 84.8812 289.954C84.552 288.513 84.8077 287 85.5923 285.747C86.3768 284.494 87.6261 283.604 89.0663 283.27C89.1677 283.245 89.2694 283.27 89.3708 283.245C89.3631 284.17 89.5995 285.08 90.056 285.884L94.0399 292.837C93.3464 293.495 92.4866 293.951 91.5531 294.157Z" fill="#2F2E41"/>
<path d="M126.318 270.938C126.623 274.998 119.67 279.667 110.357 281.52C101.805 283.271 94.1415 282.052 91.9845 278.855C92.418 278.598 92.8889 278.409 93.3803 278.297L125.506 271.039C125.774 270.982 126.045 270.948 126.318 270.938V270.938Z" fill="#3F3D56"/>
<path d="M104.1 374.008L122.145 364.986L107.108 324.385L103.145 303.91C102.63 301.25 101.426 298.772 99.6528 296.722C97.8801 294.673 95.6005 293.126 93.0421 292.233C90.4837 291.341 87.7359 291.136 85.0734 291.639C82.411 292.142 79.927 293.334 77.8698 295.097V295.097C74.8213 297.71 72.9072 301.406 72.5314 305.403C72.1557 309.401 73.3477 313.388 75.8559 316.523L90.5666 334.911L104.1 374.008Z" fill="#A0616A"/>
<path d="M122.145 357.467L98.0852 369.497L116.344 426.708C117.655 430.816 120.005 434.516 123.167 437.448C126.329 440.381 130.195 442.447 134.39 443.446V443.446C139.563 444.677 144.994 444.23 149.895 442.167C154.796 440.105 158.913 436.535 161.649 431.975L210.065 348.987C213.497 343.268 214.556 336.435 213.016 329.946C211.477 323.457 207.462 317.827 201.828 314.259V314.259C198.798 312.34 195.397 311.08 191.848 310.562C188.299 310.044 184.681 310.279 181.228 311.252C177.776 312.225 174.567 313.914 171.811 316.209C169.055 318.504 166.813 321.354 165.23 324.573L135.678 387.542L122.145 357.467Z" fill="#3F3D56"/>
<path d="M114.703 305.765C114.659 305.765 114.614 305.758 114.572 305.743L109.319 303.934C109.256 303.913 109.198 303.876 109.153 303.826C109.108 303.777 109.075 303.717 109.059 303.652C109.042 303.587 109.042 303.519 109.059 303.454C109.075 303.389 109.107 303.329 109.153 303.28L113.06 299.026C113.096 298.987 113.139 298.955 113.187 298.932C113.235 298.91 113.287 298.897 113.34 298.894C113.393 298.892 113.446 298.9 113.496 298.918C113.546 298.936 113.592 298.964 113.631 299C113.671 299.036 113.702 299.079 113.725 299.128C113.747 299.176 113.76 299.228 113.762 299.281C113.764 299.334 113.756 299.387 113.737 299.437C113.719 299.487 113.691 299.533 113.655 299.572L110.165 303.371L114.835 304.979C114.925 305.01 115.001 305.072 115.05 305.154C115.099 305.237 115.117 305.333 115.102 305.428C115.086 305.522 115.037 305.608 114.964 305.669C114.891 305.731 114.799 305.765 114.703 305.765V305.765Z" fill="#00B0FF"/>
<path d="M121.903 304.291C121.823 304.291 121.744 304.267 121.678 304.222C121.611 304.177 121.559 304.113 121.529 304.039C121.499 303.964 121.492 303.882 121.508 303.803C121.525 303.725 121.565 303.653 121.623 303.597L125.173 300.164L120.404 298.198C120.354 298.178 120.31 298.148 120.272 298.111C120.234 298.074 120.205 298.029 120.184 297.98C120.164 297.931 120.153 297.879 120.153 297.826C120.153 297.773 120.163 297.72 120.183 297.671C120.204 297.622 120.233 297.577 120.271 297.54C120.308 297.502 120.353 297.472 120.402 297.452C120.451 297.431 120.504 297.421 120.557 297.421C120.61 297.421 120.662 297.431 120.711 297.452L126.051 299.652C126.113 299.678 126.168 299.718 126.211 299.77C126.253 299.822 126.282 299.884 126.294 299.95C126.307 300.016 126.303 300.084 126.283 300.148C126.262 300.212 126.227 300.269 126.178 300.316L122.184 304.177C122.109 304.25 122.008 304.291 121.903 304.291V304.291Z" fill="#00B0FF"/>
<path d="M115.806 308.236C115.766 308.236 115.726 308.23 115.687 308.218C115.636 308.202 115.589 308.177 115.548 308.143C115.507 308.109 115.474 308.068 115.449 308.021C115.424 307.974 115.409 307.923 115.404 307.87C115.399 307.817 115.404 307.764 115.42 307.713L119.148 295.594C119.18 295.492 119.251 295.406 119.346 295.356C119.44 295.307 119.551 295.296 119.653 295.328C119.755 295.359 119.841 295.43 119.891 295.525C119.941 295.619 119.952 295.73 119.921 295.832L116.192 307.951C116.167 308.034 116.115 308.106 116.046 308.157C115.976 308.208 115.892 308.236 115.806 308.236V308.236Z" fill="#00B0FF"/>
</g>
<defs>
<clipPath id="clip0_0:1">
<rect width="467" height="467" fill="white"/>
</clipPath>
</defs>
</svg>
